Patient4_TMGait_0pt8_01_right_03_GRF.mot
version=1
nRows=59
nColumns=19
inDegrees=no
endheader
time	F1x	F1y	F1z	M1x	M1y	M1z	F2x	F2y	F2z	M2x	M2y	M2z	EC1x	EC1y	EC1z	EC2x	EC2y	EC2z
3.05	-8.1306	711.0615	64.7995	-247.4191	-60.8616	709.5581	10.0462	6.1524	-0.37731	1.6876	-3.2535	9.096	-0.0592	0.0182	-0.0073	-0.0462	0.0165	0.9585
3.0612	-4.3656	714.072	65.4813	-247.3814	-60.7257	711.2891	6.5479	4.9139	-0.31449	1.4281	-1.9678	6.9282	-0.0592	0.0182	-0.0073	-0.0462	0.0165	0.9585
3.0724	-0.32266	717.3022	65.9676	-247.5027	-60.108	712.2179	3.592	3.9148	-0.28089	1.2299	-0.86911	5.159	-0.0592	0.0182	-0.0073	-0.0462	0.0165	0.9585
3.0836	3.7667	720.6621	66.2971	-247.7921	-59.0988	712.3515	1.3256	3.2233	-0.26343	1.106	-0.026026	3.9029	-0.0592	0.0182	-0.0073	-0.0462	0.0165	0.9585
3.0949	7.7422	724.0424	66.4577	-248.2184	-57.7647	711.7561	-0.2613	2.8272	-0.26294	1.052	0.5686	3.1468	-0.0592	0.0182	-0.0073	-0.0462	0.0165	0.9585
3.1061	11.443	727.3199	66.533	-248.7218	-56.2822	710.5364	-1.2796	2.6749	-0.27059	1.0532	0.95135	2.8267	-0.0592	0.0182	-0.0073	-0.0462	0.0165	0.9585
3.1173	14.8358	730.368	66.5185	-249.2398	-54.714	708.7413	-1.8715	2.6736	-0.29326	1.0818	1.1879	2.7958	-0.0592	0.0182	-0.0073	-0.0462	0.0165	0.9585
3.1285	17.8834	733.047	66.4685	-249.7011	-53.1695	706.3858	-2.1813	2.7223	-0.33403	1.106	1.3364	2.8931	-0.0592	0.0182	-0.0073	-0.0462	0.0165	0.9585
3.1397	20.6418	735.2234	66.3824	-250.0429	-51.6673	703.4331	-2.3275	2.7006	-0.39971	1.087	1.4512	2.9364	-0.0592	0.0182	-0.0073	-0.0462	0.0165	0.9585
3.1509	23.1798	736.8126	66.2574	-250.2186	-50.2067	699.8774	-2.404	2.4879	-0.48725	0.98305	1.5684	2.7527	-0.0592	0.0182	-0.0073	-0.0462	0.0165	0.9585
3.1621	25.5949	737.7651	66.1164	-250.1999	-48.791	695.6968	-2.4574	1.9415	-0.59845	0.74347	1.7118	2.1569	-0.0592	0.0182	-0.0073	-0.0462	0.0165	0.9585
3.1734	28.0084	738.1408	65.9365	-249.9975	-47.3673	690.9663	-2.498	0.91817	-0.72895	0.317	1.8813	0.97183	-0.0592	0.0182	-0.0073	-0.0462	0.0165	0.9585
3.1846	30.5458	738.0961	65.7795	-249.659	-45.9494	685.8098	-2.4972	-0.68347	-0.86342	-0.33217	2.044	-0.9289	-0.0592	0.0182	-0.0073	-0.0462	0.0165	0.9585
3.1958	33.3405	737.9125	65.6583	-249.2769	-44.5008	680.4662	-2.3767	-2.9086	-0.98587	-1.2162	2.1431	-3.5943	-0.0592	0.0182	-0.0073	-0.0462	0.0165	0.9585
3.207	36.5333	737.9044	65.6576	-248.9553	-43.0426	675.1917	-2.0235	-5.6643	-1.0485	-2.2953	2.0724	-6.9067	-0.0592	0.0182	-0.0073	-0.0462	0.0165	0.9585
3.2182	40.231	738.3863	65.7895	-248.7982	-41.5335	670.2434	-1.2746	-8.655	-0.98882	-3.4498	1.691	-10.5126	-0.0592	0.0182	-0.0073	-0.0462	0.0165	0.9585
3.2294	44.5117	739.5245	66.0865	-248.8579	-39.9596	665.7678	0.03364	-11.276	-0.70434	-4.4391	0.81421	-13.6806	-0.0592	0.0182	-0.0073	-0.0462	0.0165	0.9585
3.2406	49.3588	741.3021	66.5341	-249.1241	-38.3019	661.7633	2.0904	-12.521	-0.079008	-4.8622	-0.76065	-15.2329	-0.0592	0.0182	-0.0073	-0.0462	0.0165	0.9585
3.2519	54.66	743.4729	67.112	-249.5052	-36.5694	658.0243	5.0053	-10.886	1.022	-4.1233	-3.2271	-13.4061	-0.0592	0.0182	-0.0073	-0.0462	0.0165	0.9585
3.2631	60.2225	745.5321	67.7937	-249.8195	-34.8	654.1543	8.7882	-4.3514	2.7039	-1.4218	-6.6997	-5.8265	-0.0592	0.0182	-0.0073	-0.0462	0.0165	0.9585
3.2743	65.8121	746.6417	68.4975	-249.7792	-33.0081	649.4744	13.163	9.5759	5.0195	4.2236	-11.1228	10.4534	-0.0592	0.0182	-0.0073	-0.0462	0.0165	0.9585
3.2855	71.2136	745.6513	69.0765	-249.0065	-31.1635	643.0856	17.5055	33.5654	7.9006	13.8564	-16.1503	38.581	-0.0592	0.0182	-0.0073	-0.0462	0.0165	0.9585
3.2967	76.2327	741.1096	69.2687	-247.0439	-29.1421	633.8619	20.6168	69.9566	11.0657	28.3744	-20.9604	81.3284	-0.0592	0.0182	-0.0073	-0.0462	0.0165	0.9585
3.3079	80.6392	731.3155	68.7439	-243.363	-26.7763	620.5064	20.6476	119.8421	13.9122	48.1716	-24.1022	140.01	-0.0592	0.0182	-0.0073	-0.0462	0.0165	0.9585
3.3191	84.1807	714.4001	67.145	-237.3833	-23.8907	601.6059	15.2823	182.2001	15.4586	72.7813	-23.552	213.5124	-0.0592	0.0182	-0.0073	-0.0462	0.0165	0.9585
3.3304	86.4768	688.5413	64.1728	-228.5338	-20.4028	575.8009	3.2682	253.4711	14.6078	100.7112	-17.5515	297.686	-0.0592	0.0182	-0.0073	-0.0462	0.0165	0.9585
3.3416	87.0787	652.2796	59.6968	-216.3528	-16.3926	542.0219	-13.9448	327.8049	10.2471	129.5684	-5.4525	385.5624	-0.0592	0.0182	-0.0073	-0.0462	0.0165	0.9585
3.3528	85.502	604.8988	53.8185	-200.6029	-12.1216	499.8012	-32.9619	398.3911	2.3281	156.6892	11.4173	468.7078	-0.0592	0.0182	-0.0073	-0.0462	0.0165	0.9585
3.364	81.3513	546.8408	46.8978	-181.4015	-8.0164	449.5877	-50.8482	461.0197	-8.1575	180.4638	30.6655	541.7131	-0.0592	0.0182	-0.0073	-0.0462	0.0165	0.9585
3.3752	74.4412	479.8809	39.4507	-159.2876	-4.5342	392.8892	-65.8477	515.4569	-19.6273	200.8692	49.7448	603.9497	-0.0592	0.0182	-0.0073	-0.0462	0.0165	0.9585
3.3864	64.9111	407.0313	32.0332	-135.209	-2.0445	332.148	-77.0411	563.4235	-30.8112	218.6426	66.8513	657.3511	-0.0592	0.0182	-0.0073	-0.0462	0.0165	0.9585
3.3976	53.2738	332.1955	25.149	-110.4271	-0.74768	270.4601	-84.1955	606.3964	-40.8647	234.4364	80.9158	703.7393	-0.0592	0.0182	-0.0073	-0.0462	0.0165	0.9585
3.4089	40.4982	259.707	19.0983	-86.3708	-0.5254	211.2054	-87.5074	645.0722	-49.036	248.569	91.2287	744.0791	-0.0592	0.0182	-0.0073	-0.0462	0.0165	0.9585
3.4201	27.8445	193.5396	14.0686	-64.3716	-1.0707	157.4242	-87.4451	679.1566	-55.4341	260.9464	98.0932	778.2472	-0.0592	0.0182	-0.0073	-0.0462	0.0165	0.9585
3.4313	16.5887	136.5811	10.08	-45.4082	-1.9392	111.2919	-84.6668	708.09	-60.1128	271.351	101.897	805.8216	-0.0592	0.0182	-0.0073	-0.0462	0.0165	0.9585
3.4425	7.5798	90.186	7.0078	-29.9566	-2.7299	73.7831	-79.9172	731.2329	-63.6438	279.5222	103.5788	826.3638	-0.0592	0.0182	-0.0073	-0.0462	0.0165	0.9585
3.4537	1.1201	54.4778	4.6508	-18.0743	-3.179	44.926	-73.9845	748.3013	-66.3022	285.3607	103.7951	839.8508	-0.0592	0.0182	-0.0073	-0.0462	0.0165	0.9585
3.4649	-2.8505	28.6571	2.8439	-9.4996	-3.1898	24.0558	-67.5378	759.4258	-68.3991	288.9316	103.1704	846.6618	-0.0592	0.0182	-0.0073	-0.0462	0.0165	0.9585
3.4761	-4.6913	11.3847	1.5079	-3.7797	-2.8332	10.0794	-61.1856	764.9121	-70.0636	290.39	102.0868	847.3268	-0.0592	0.0182	-0.0073	-0.0462	0.0165	0.9585
3.4874	-5.0233	1.0355	0.58263	-0.36306	-2.2766	1.6765	-55.3431	765.2675	-71.1774	289.973	100.5931	842.5193	-0.0592	0.0182	-0.0073	-0.0462	0.0165	0.9585
3.4986	-4.5175	-4.1534	0.028443	1.3443	-1.7162	-2.5624	-50.2174	761.2823	-71.6502	288.0205	98.6664	833.1636	-0.0592	0.0182	-0.0073	-0.0462	0.0165	0.9585
3.5098	-3.6302	-5.8636	-0.24834	1.9012	-1.2369	-4.0026	-45.7894	754.0963	-71.2371	285.0055	96.0545	820.4786	-0.0592	0.0182	-0.0073	-0.0462	0.0165	0.9585
3.521	-2.669	-5.4893	-0.33268	1.7705	-0.87455	-3.7533	-41.9301	745.1113	-69.9894	281.4678	92.7621	805.9314	-0.0592	0.0182	-0.0073	-0.0462	0.0165	0.9585
3.5322	-1.8065	-4.0617	-0.29758	1.2907	-0.62832	-2.6593	-38.4783	735.6036	-68.0074	277.8893	88.8454	790.8008	-0.0592	0.0182	-0.0073	-0.0462	0.0165	0.9585
3.5434	-1.1288	-2.2865	-0.19758	0.69236	-0.48069	-1.2825	-35.2863	726.5862	-65.7077	274.6155	84.6788	776.1268	-0.0592	0.0182	-0.0073	-0.0462	0.0165	0.9585
3.5546	-0.63805	-0.58576	-0.07746	0.11675	-0.39742	0.042136	-32.2363	718.7754	-63.4457	271.8771	80.5921	762.6123	-0.0592	0.0182	-0.0073	-0.0462	0.0165	0.9585
3.5659	-0.32608	0.83904	0.034215	-0.36797	-0.35048	1.1666	-29.2748	712.8019	-61.496	269.8698	76.8542	750.8891	-0.0592	0.0182	-0.0073	-0.0462	0.0165	0.9585
3.5771	-0.13916	1.9203	0.11958	-0.73999	-0.31208	2.0486	-26.3298	709.2148	-59.98	268.7663	73.5766	741.5154	-0.0592	0.0182	-0.0073	-0.0462	0.0165	0.9585
3.5883	-0.04369	2.6895	0.16838	-1.0074	-0.27061	2.7186	-23.3664	708.3311	-58.895	268.6626	70.7524	734.8148	-0.0592	0.0182	-0.0073	-0.0462	0.0165	0.9585
3.5995	-0.011974	3.1822	0.18676	-1.1824	-0.22949	3.2037	-20.324	710.1933	-58.2427	269.5531	68.3646	730.8358	-0.0592	0.0182	-0.0073	-0.0462	0.0165	0.9585
3.6107	-0.0038507	3.4915	0.17337	-1.2917	-0.18268	3.5675	-17.1929	714.5515	-57.9442	271.3266	66.329	729.3403	-0.0592	0.0182	-0.0073	-0.0462	0.0165	0.9585
3.6219	-0.017832	3.6777	0.14319	-1.3569	-0.14055	3.8361	-13.9991	720.9417	-57.9964	273.7857	64.6487	729.8948	-0.0592	0.0182	-0.0073	-0.0462	0.0165	0.9585
3.6331	-0.03973	3.8015	0.10471	-1.4005	-0.10633	4.0467	-10.7894	728.7552	-58.3285	276.6836	63.2637	731.9314	-0.0592	0.0182	-0.0073	-0.0462	0.0165	0.9585
3.6444	-0.069139	3.8898	0.07471	-1.4334	-0.09266	4.2108	-7.6251	737.2889	-58.8922	279.7429	62.1403	734.7871	-0.0592	0.0182	-0.0073	-0.0462	0.0165	0.9585
3.6556	-0.11499	3.9402	0.057718	-1.457	-0.10604	4.3103	-4.5344	745.8228	-59.6045	282.6863	61.2025	737.768	-0.0592	0.0182	-0.0073	-0.0462	0.0165	0.9585
3.6668	-0.18142	3.9276	0.063212	-1.4609	-0.15389	4.3192	-1.5458	753.6494	-60.3744	285.2484	60.3664	740.2164	-0.0592	0.0182	-0.0073	-0.0462	0.0165	0.9585
3.678	-0.27943	3.7906	0.089749	-1.4201	-0.23955	4.1676	1.3405	760.1076	-61.1443	287.1877	59.5708	741.501	-0.0592	0.0182	-0.0073	-0.0462	0.0165	0.9585
3.6892	-0.42083	3.4723	0.14481	-1.3072	-0.37434	3.7867	4.1511	764.6688	-61.83	288.3134	58.7204	741.1059	-0.0592	0.0182	-0.0073	-0.0462	0.0165	0.9585
3.7004	-0.59214	2.8778	0.22197	-1.0829	-0.54676	3.0698	6.9229	766.9444	-62.3804	288.4925	57.7425	738.6563	-0.0592	0.0182	-0.0073	-0.0462	0.0165	0.9585
